<?xml version="1.0" encoding="iso-8859-1"?>
<!-- Generator: Adobe Illustrator 19.0.0, SVG Export Plug-In . SVG Version: 6.00 Build 0)  -->
<svg version="1.1" id="Capa_1" xmlns="http://www.w3.org/2000/svg" xmlns:xlink="http://www.w3.org/1999/xlink" x="0px" y="0px"
	 viewBox="0 0 512 512" style="enable-background:new 0 0 512 512;" xml:space="preserve">
<path style="fill:#666666;" d="M398.698,188.675c-5.299,0-10.51,0.372-15.616,1.076c-22.862-54.638-76.825-93.03-139.759-93.03
	c-73.938,0-135.489,52.991-148.774,123.063C42.043,221.488,0,264.582,0,317.502c0,54.001,43.776,97.777,97.777,97.777h300.921
	c62.575,0,113.302-50.727,113.302-113.302S461.273,188.675,398.698,188.675z"/>
<path style="fill:#4D4D4D;" d="M398.698,188.675c-5.299,0-10.51,0.372-15.616,1.076C361.771,138.82,313.433,102.021,256,97.259
	v318.02h142.698c62.575,0,113.302-50.727,113.302-113.302S461.273,188.675,398.698,188.675z"/>
<g>
	<path style="fill:#FFFFFF;" d="M190.322,248.317c17.052,0,30.314,8.526,36.404,20.977l-17.052,11.909
		c-3.925-10.15-12.856-13.127-19.894-13.127c-15.698,0-23.142,14.886-23.142,28.825c0,15.292,9.202,29.096,23.412,29.096
		c7.308,0,16.104-3.654,19.623-13.263l18.27,10.691c-5.684,14.21-23.276,22.329-38.434,22.329c-26.66,0-45.471-25.035-45.471-49.666
		C144.04,272.812,161.091,248.317,190.322,248.317z"/>
	<path style="fill:#FFFFFF;" d="M232.812,296.766c0-25.441,19.487-48.448,46.147-48.448c27.473,0,45.606,24.495,45.606,48.854
		c0,25.307-19.353,48.583-46.012,48.583C251.217,345.755,232.812,321.531,232.812,296.766z M278.824,325.997
		c15.428,0,23.142-14.887,23.142-29.231c0-14.886-8.391-28.689-23.277-28.689c-15.428,0-23.276,14.479-23.276,28.96
		C255.412,311.787,263.667,325.997,278.824,325.997z"/>
	<path style="fill:#FFFFFF;" d="M329.496,363.053c0-13.024,1.558-18.971,12.317-24.067c5.875-2.761,10.972-5.238,10.972-10.405
		c0-3.397-2.194-4.459-4.602-4.459c-3.681,0-7.716,2.478-10.405,5.096l-8.282-8.989c3.752-4.247,11.396-7.999,20.599-7.999
		c11.468,0,18.051,5.805,18.051,16.14c0,7.786-3.681,11.325-9.98,15.006c-4.035,2.336-8.637,4.602-8.637,7.646h18.688v12.033
		h-38.721L329.496,363.053L329.496,363.053z"/>
</g>
<g>
</g>
<g>
</g>
<g>
</g>
<g>
</g>
<g>
</g>
<g>
</g>
<g>
</g>
<g>
</g>
<g>
</g>
<g>
</g>
<g>
</g>
<g>
</g>
<g>
</g>
<g>
</g>
<g>
</g>
</svg>
