<svg height="512pt" viewBox="0 -21 512.00061 512" width="512pt" xmlns="http://www.w3.org/2000/svg"><path d="m465.550781 195.417969c18.464844-21.414063 16.078125-53.746094-5.335937-72.214844-21.414063-18.464844-53.746094-16.078125-72.210938 5.335937-5.214844 6.046876-8.941406 13.226563-10.886718 20.96875-16.398438-33.921874-57.1875-48.125-91.105469-31.726562-33.921875 16.394531-48.125 57.183594-31.726563 91.105469 3.753906 7.769531 8.949219 14.753906 15.308594 20.585937-28.816406 16.054688-39.164062 52.433594-23.109375 81.253906 1.726563 3.097657 3.722656 6.03125 5.96875 8.773438-8.953125 3.335938-16.980469 8.765625-23.410156 15.832031-26.910157-8.679687-55.761719 6.105469-64.4375 33.019531-1.632813 5.058594-2.464844 10.339844-2.472657 15.652344h-42.664062v51.203125h153.601562c28.828126-.019531 53.527344-20.625 58.71875-48.984375 29.425782 14.75 65.234376 2.847656 79.980469-26.578125 3.421875-6.824219 5.5-14.246093 6.121094-21.855469 42.101563 4.835938 80.152344-25.371093 84.988281-67.472656 3.464844-30.152344-11.167968-59.511718-37.328125-74.898437zm0 0" fill="#6b6b6b"/><path d="m8.535156 375.472656h93.867188v68.265625h-93.867188zm0 0" fill="#c4beb8"/><g fill="#6b6b6b"><path d="m460.804688 42.667969c0 18.851562-15.28125 34.132812-34.132813 34.132812s-34.132813-15.28125-34.132813-34.132812c0-18.851563 15.28125-34.132813 34.132813-34.132813s34.132813 15.28125 34.132813 34.132813zm0 0"/><path d="m204.804688 264.535156c0 14.140625-11.464844 25.601563-25.601563 25.601563-14.140625 0-25.601563-11.460938-25.601563-25.601563 0-14.136718 11.460938-25.597656 25.601563-25.597656 14.136719 0 25.601563 11.460938 25.601563 25.597656zm0 0"/><path d="m477.871094 384.003906c0 9.425782-7.640625 17.066406-17.066406 17.066406-9.425782 0-17.066407-7.640624-17.066407-17.066406 0-9.425781 7.640625-17.066406 17.066407-17.066406 9.425781 0 17.066406 7.640625 17.066406 17.066406zm0 0"/></g><path d="m307.203125 315.738281h-17.066406c-9.425781 0-17.066407-7.640625-17.066407-17.066406v-34.132813c0-9.425781 7.640626-17.070312 17.066407-17.070312h17.066406c9.425781 0 17.066406 7.644531 17.066406 17.070312v8.53125h-17.066406v-8.53125h-17.066406v34.132813h17.066406v-8.535156h17.066406v8.535156c0 9.425781-7.640625 17.066406-17.066406 17.066406zm0 0" fill="#917966"/><path d="m375.472656 315.738281h-17.070312c-9.425782 0-17.066406-7.640625-17.066406-17.066406v-34.132813c0-9.425781 7.640624-17.070312 17.066406-17.070312h17.070312c9.425782 0 17.066406 7.644531 17.066406 17.070312v34.132813c0 9.425781-7.640624 17.066406-17.066406 17.066406zm-17.070312-51.203125v34.136719h17.070312v-34.136719zm0 0" fill="#917966"/><path d="m460.804688 290.136719h-42.667969c-4.710938 0-8.53125-3.820313-8.53125-8.535157 0-2.261718.898437-4.429687 2.5-6.03125l29.867187-29.867187c3.730469-3.738281 3.730469-9.792969 0-13.535156-3.789062-3.617188-9.75-3.617188-13.535156 0l-12.800781 12.800781-12.066407-12.066406 12.800782-12.800782c10.402344-10.398437 27.265625-10.398437 37.667968 0 10.398438 10.402344 10.398438 27.265626 0 37.667969l-15.300781 15.300781h22.066407zm0 0" fill="#917966"/><path d="m93.867188 358.40625h34.132812v102.398438h-34.132812zm0 0" fill="#d1d3d3"/><path d="m426.671875 85.335938c23.5625 0 42.667969-19.105469 42.667969-42.667969 0-23.566407-19.101563-42.667969-42.667969-42.667969s-42.667969 19.101562-42.667969 42.667969c.027344 23.554687 19.113282 42.636719 42.667969 42.667969zm0-68.269532c14.136719 0 25.601563 11.460938 25.601563 25.601563 0 14.136719-11.460938 25.601562-25.601563 25.601562s-25.601563-11.464843-25.601563-25.601562c0-14.140625 11.460938-25.601563 25.601563-25.601563zm0 0"/><path d="m145.066406 264.535156c0 18.851563 15.285156 34.136719 34.136719 34.136719s34.132813-15.285156 34.132813-34.136719c0-18.851562-15.28125-34.132812-34.132813-34.132812s-34.136719 15.28125-34.136719 34.132812zm51.203125 0c0 9.425782-7.640625 17.066406-17.066406 17.066406s-17.066406-7.640624-17.066406-17.066406c0-9.425781 7.640625-17.066406 17.066406-17.066406s17.066406 7.640625 17.066406 17.066406zm0 0"/><path d="m460.804688 358.40625c-14.136719 0-25.601563 11.460938-25.601563 25.597656 0 14.140625 11.464844 25.601563 25.601563 25.601563 14.140624 0 25.601562-11.460938 25.601562-25.601563 0-14.136718-11.460938-25.597656-25.601562-25.597656zm0 34.132812c-4.710938 0-8.53125-3.820312-8.53125-8.535156 0-4.710937 3.820312-8.53125 8.53125-8.53125 4.714843 0 8.535156 3.820313 8.535156 8.53125 0 4.714844-3.820313 8.535156-8.535156 8.535156zm0 0"/><path d="m307.203125 247.46875h-17.066406c-9.425781 0-17.066407 7.640625-17.066407 17.066406v34.136719c0 9.425781 7.640626 17.066406 17.066407 17.066406h17.066406c9.425781 0 17.066406-7.640625 17.066406-17.066406v-8.535156h-17.066406v8.535156h-17.066406v-34.136719h17.066406v8.535156h17.066406v-8.535156c0-9.425781-7.640625-17.066406-17.066406-17.066406zm0 0"/><path d="m375.472656 247.46875h-17.070312c-9.425782 0-17.066406 7.640625-17.066406 17.066406v34.136719c0 9.425781 7.640624 17.066406 17.066406 17.066406h17.070312c9.425782 0 17.066406-7.640625 17.066406-17.066406v-34.136719c0-9.425781-7.640624-17.066406-17.066406-17.066406zm0 51.203125h-17.070312v-34.132813h17.070312zm0 0"/><path d="m477.660156 193.199219c18.0625-27.605469 10.328125-64.628907-17.277344-82.691407-27.605468-18.066406-64.625-10.332031-82.691406 17.273438-.722656 1.105469-1.410156 2.234375-2.058594 3.386719-26.484374-33.097657-74.78125-38.457031-107.878906-11.972657-33.09375 26.484376-38.457031 74.78125-11.972656 107.875.238281.296876.476562.589844.71875.882813-26.808594 21.039063-33.972656 58.632813-16.789062 88.058594-4.773438 2.710937-9.207032 5.980469-13.207032 9.734375-32.179687-7.273438-64.164062 12.910156-71.4375 45.089844-.347656 1.535156-.632812 3.078124-.859375 4.636718h-17.671875v-17.066406c0-4.714844-3.820312-8.535156-8.535156-8.535156h-34.132812c-4.714844 0-8.535157 3.820312-8.535157 8.535156v8.53125h-76.796875c-4.714844 0-8.535156 3.820312-8.535156 8.535156v68.265625c0 4.714844 3.820312 8.535157 8.535156 8.535157h76.800782v8.53125c0 4.714843 3.820312 8.535156 8.53125 8.535156h34.132812c4.714844 0 8.535156-3.820313 8.535156-8.535156v-17.066407h136.535156c29.101563.015625 55.003907-18.441406 64.496094-45.953125 6.730469 2.1875 13.761719 3.296875 20.839844 3.289063 32.214844-.1875 59.972656-22.730469 66.765625-54.222657 47.085937.859376 85.957031-36.617187 86.816406-83.707031.5-27.484375-12.28125-53.527343-34.328125-69.945312zm-392.328125 242.007812h-68.265625v-51.203125h68.265625zm34.136719-51.203125v68.269532h-17.066406v-85.335938h17.066406zm307.203125-54.210937c-2.605469-.011719-5.210937-.171875-7.800781-.480469-2.296875-.285156-4.609375.398438-6.390625 1.878906-1.792969 1.457032-2.910157 3.585938-3.097657 5.886719-2.332031 26.457031-24.417968 46.789063-50.976562 46.925781-7.921875.003906-15.730469-1.851562-22.804688-5.417968-4.214843-2.109376-9.339843-.398438-11.445312 3.816406-.363281.726562-.621094 1.496094-.765625 2.292968-4.414063 24.320313-25.601563 41.992188-50.320313 41.976563h-136.535156v-34.132813h25.601563c4.710937 0 8.53125-3.824218 8.53125-8.535156.007812-23.566406 19.113281-42.664062 42.679687-42.65625 4.445313 0 8.863282.695313 13.097656 2.0625 3.171876 1.023438 6.652344.101563 8.90625-2.355468 5.515626-6.058594 12.398438-10.71875 20.070313-13.585938 4.421875-1.632812 6.683594-6.539062 5.050781-10.960938-.328125-.890624-.804687-1.71875-1.40625-2.453124-17.914062-21.878907-14.703125-54.136719 7.175782-72.050782 2.355468-1.929687 4.875-3.644531 7.535156-5.125 4.117187-2.296875 5.59375-7.496094 3.296875-11.609375-.445313-.796875-1.011719-1.515625-1.683594-2.128906-12.394531-11.238281-19.441406-27.207031-19.386719-43.9375-.019531-32.96875 26.691406-59.707031 59.65625-59.726563 22.910156-.015624 43.808594 13.085938 53.777344 33.714844 1.585938 3.199219 4.976562 5.09375 8.535156 4.769532 3.566406-.363282 6.523438-2.910157 7.40625-6.382813 5.71875-22.859375 28.886719-36.753906 51.746094-31.035156 22.863281 5.71875 36.757812 28.886719 31.039062 51.746093-1.621093 6.46875-4.730468 12.46875-9.089843 17.519532-3.070313 3.574218-2.660157 8.964844.914062 12.03125.382813.328125.792969.625 1.230469.878906 32.503906 19.050781 43.410156 60.839844 24.363281 93.347656-12.253906 20.90625-34.679687 33.746094-58.910156 33.726563zm0 0"/><path d="m461.835938 238.9375c.003906-14.710938-11.921876-26.632812-26.628907-26.636719-7.066406 0-13.839843 2.804688-18.835937 7.800781l-12.800782 12.800782 12.066407 12.066406 12.800781-12.800781c3.785156-3.617188 9.75-3.617188 13.535156 0 3.730469 3.742187 3.730469 9.796875 0 13.535156l-29.867187 29.867187c-3.332031 3.332032-3.332031 8.738282 0 12.070313 1.601562 1.597656 3.769531 2.496094 6.035156 2.496094h42.664063v-17.066407h-22.066407l15.300781-15.300781c5.011719-4.984375 7.820313-11.765625 7.796876-18.832031zm0 0"/></svg>